<svg width="40" height="40" viewBox="0 0 40 40" fill="none" xmlns="http://www.w3.org/2000/svg">
<rect x="0.5" y="0.5" width="39" height="39" rx="7.5" fill="#1F2937" stroke="#374151"/>
<path fill-rule="evenodd" clip-rule="evenodd" d="M16.267 13.455C16.9101 13.4036 17.5206 13.1508 18.0116 12.7323C19.1574 11.7559 20.8426 11.7559 21.9884 12.7323C22.4794 13.1508 23.0899 13.4036 23.733 13.455C25.2336 13.5747 26.4253 14.7664 26.545 16.267C26.5964 16.9101 26.8492 17.5206 27.2677 18.0116C28.2441 19.1574 28.2441 20.8426 27.2677 21.9884C26.8492 22.4794 26.5964 23.0899 26.545 23.733C26.4253 25.2336 25.2336 26.4253 23.733 26.545C23.0899 26.5964 22.4794 26.8492 21.9884 27.2677C20.8426 28.2441 19.1574 28.2441 18.0116 27.2677C17.5206 26.8492 16.9101 26.5964 16.267 26.545C14.7664 26.4253 13.5747 25.2336 13.455 23.733C13.4036 23.0899 13.1508 22.4794 12.7323 21.9884C11.7559 20.8426 11.7559 19.1574 12.7323 18.0116C13.1508 17.5206 13.4036 16.9101 13.455 16.267C13.5747 14.7664 14.7664 13.5747 16.267 13.455ZM23.7071 18.7071C24.0976 18.3166 24.0976 17.6834 23.7071 17.2929C23.3166 16.9024 22.6834 16.9024 22.2929 17.2929L19 20.5858L17.7071 19.2929C17.3166 18.9024 16.6834 18.9024 16.2929 19.2929C15.9024 19.6834 15.9024 20.3166 16.2929 20.7071L18.2929 22.7071C18.6834 23.0976 19.3166 23.0976 19.7071 22.7071L23.7071 18.7071Z" fill="#FF8811"/>
</svg>
