<svg width="20" height="20" viewBox="0 0 20 20" fill="none" xmlns="http://www.w3.org/2000/svg">
<path fill-rule="evenodd" clip-rule="evenodd" d="M15.1524 0.968316L19.2375 6.81182C20.1765 8.30871 20.1594 9.08233 19.6501 10.5272C19.1786 11.8639 18.3807 13.1198 17.3559 14.2596C16.7758 14.9045 15.9512 15.2776 15.0334 15.3102C14.9905 15.3119 14.9481 15.3125 14.9052 15.3125C13.9611 15.3125 13.0398 14.9429 12.3588 14.2867C11.8197 13.7669 11.3104 13.2154 10.8014 12.6642L10.7984 12.661L10.4472 12.281C10.0678 11.8724 9.57682 11.6624 8.94511 11.6389C8.26014 11.6167 7.64963 11.9154 7.25764 12.1739L4.89557 13.7459C4.34168 14.1154 3.65732 14.2145 3.01996 14.0205C2.38184 13.8254 1.87037 13.3595 1.61692 12.7434V12.7428L0.286044 9.67804C-0.318814 8.28018 0.0330535 7.09335 1.36576 6.06048L5.3631 2.13897C6.21119 1.34704 6.76325 1.33102 7.64109 2.07366C7.68976 2.11608 7.73554 2.12127 7.77384 2.11776C7.80466 2.1144 7.84998 2.10067 7.88706 2.05306C8.2413 1.60148 8.46924 1.25482 8.64132 0.993117L8.64298 0.990594C9.3754 -0.118873 9.66669 -0.10926 11.2957 0.129998L11.9653 0.226739C12.1501 0.252526 12.312 0.365136 12.4002 0.529931C12.4888 0.694116 12.4934 0.890954 12.4127 1.05987L12.2468 1.41052C12.134 1.65084 12.0385 1.85409 11.9337 2.052C11.8474 2.21553 11.8879 2.25233 11.9143 2.27628L11.9143 2.2763L13.6103 3.65646C13.7019 3.7091 13.8696 3.68225 13.9668 3.63067C14.0956 3.56201 14.0995 3.46084 14.1007 3.42758L14.091 1.31332C14.0898 1.05865 14.2535 0.832665 14.4955 0.753625C14.7381 0.674737 15.0024 0.761102 15.1524 0.968316ZM13.5831 16.4844H16.9602C17.1364 16.4844 17.3041 16.5639 17.4151 16.7012C17.5261 16.8381 17.5701 17.0177 17.5335 17.1906C17.2967 18.32 16.4989 20 15.2717 20C14.0442 20 13.2467 18.32 13.0097 17.1906C12.9731 17.0177 13.0172 16.8381 13.1281 16.7012C13.2392 16.5639 13.4067 16.4844 13.5831 16.4844Z" fill="#FF8811"/>
</svg>
