<svg width="40" height="40" viewBox="0 0 40 40" fill="none" xmlns="http://www.w3.org/2000/svg">
<rect width="40" height="40" rx="8" fill="#FF8811"/>
<path fill-rule="evenodd" clip-rule="evenodd" d="M20 29C24.4183 29 28 25.4183 28 21C28 16.5817 24.4183 13 20 13C15.5817 13 12 16.5817 12 21C12 25.4183 15.5817 29 20 29ZM21 17C21 16.4477 20.5523 16 20 16C19.4477 16 19 16.4477 19 17V21C19 21.2652 19.1054 21.5196 19.2929 21.7071L22.1213 24.5355C22.5118 24.9261 23.145 24.9261 23.5355 24.5355C23.9261 24.145 23.9261 23.5118 23.5355 23.1213L21 20.5858V17Z" fill="white"/>
</svg>
