<svg width="40" height="40" viewBox="0 0 40 40" fill="none" xmlns="http://www.w3.org/2000/svg">
<rect width="40" height="40" rx="8" fill="#FF8811"/>
<path d="M19 16C19 17.6569 17.6569 19 16 19C14.3431 19 13 17.6569 13 16C13 14.3431 14.3431 13 16 13C17.6569 13 19 14.3431 19 16Z" fill="white"/>
<path d="M27 16C27 17.6569 25.6569 19 24 19C22.3431 19 21 17.6569 21 16C21 14.3431 22.3431 13 24 13C25.6569 13 27 14.3431 27 16Z" fill="white"/>
<path d="M22.9291 27C22.9758 26.6734 23 26.3395 23 26C23 24.3648 22.4393 22.8606 21.4998 21.6691C22.2352 21.2435 23.0892 21 24 21C26.7614 21 29 23.2386 29 26V27H22.9291Z" fill="white"/>
<path d="M16 21C18.7614 21 21 23.2386 21 26V27H11V26C11 23.2386 13.2386 21 16 21Z" fill="white"/>
</svg>
