<svg width="40" height="40" viewBox="0 0 40 40" fill="none" xmlns="http://www.w3.org/2000/svg">
<rect width="40" height="40" rx="8" fill="#FF8811"/>
<path fill-rule="evenodd" clip-rule="evenodd" d="M12.1661 14.9989C15.1744 14.9581 17.9153 13.8103 20 11.9445C22.0847 13.8103 24.8256 14.9581 27.8339 14.9989C27.9431 15.6497 28 16.3182 28 17C28 22.2249 24.6608 26.6698 20 28.3172C15.3392 26.6698 12 22.2249 12 17C12 16.3182 12.0569 15.6497 12.1661 14.9989ZM23.7071 18.7071C24.0976 18.3166 24.0976 17.6834 23.7071 17.2929C23.3166 16.9024 22.6834 16.9024 22.2929 17.2929L19 20.5858L17.7071 19.2929C17.3166 18.9024 16.6834 18.9024 16.2929 19.2929C15.9024 19.6834 15.9024 20.3166 16.2929 20.7071L18.2929 22.7071C18.6834 23.0976 19.3166 23.0976 19.7071 22.7071L23.7071 18.7071Z" fill="white"/>
</svg>
