<svg width="40" height="40" viewBox="0 0 40 40" fill="none" xmlns="http://www.w3.org/2000/svg">
<rect width="40" height="40" rx="8" fill="#FF8811"/>
<path fill-rule="evenodd" clip-rule="evenodd" d="M28 20C28 24.4183 24.4183 28 20 28C15.5817 28 12 24.4183 12 20C12 15.5817 15.5817 12 20 12C24.4183 12 28 15.5817 28 20ZM26 20C26 20.9926 25.759 21.9289 25.3322 22.7536L23.8076 21.229C23.9325 20.8418 24 20.4288 24 20C24 19.6714 23.9604 19.352 23.8856 19.0464L25.4484 17.4836C25.8024 18.2489 26 19.1014 26 20ZM20.8346 23.9128L22.4156 25.4939C21.6766 25.8193 20.8594 26 20 26C19.1014 26 18.2489 25.8024 17.4836 25.4484L19.0464 23.8856C19.352 23.9604 19.6714 24 20 24C20.2862 24 20.5654 23.9699 20.8346 23.9128ZM16.1581 21.1171C16.0552 20.7626 16 20.3877 16 20C16 19.6681 16.0404 19.3456 16.1166 19.0372L16.0378 19.116L14.5061 17.5844C14.1807 18.3234 14 19.1406 14 20C14 20.9539 14.2226 21.8557 14.6186 22.6565L16.1581 21.1171ZM17.2464 14.6678C18.0711 14.241 19.0074 14 20 14C20.9539 14 21.8557 14.2226 22.6565 14.6186L21.1171 16.1581C20.7626 16.0552 20.3877 16 20 16C19.5712 16 19.1582 16.0675 18.771 16.1924L17.2464 14.6678ZM22 20C22 21.1046 21.1046 22 20 22C18.8954 22 18 21.1046 18 20C18 18.8954 18.8954 18 20 18C21.1046 18 22 18.8954 22 20Z" fill="white"/>
</svg>
