<svg width="40" height="40" viewBox="0 0 40 40" fill="none" xmlns="http://www.w3.org/2000/svg">
<rect x="0.5" y="0.5" width="39" height="39" rx="7.5" fill="#1F2937" stroke="#374151"/>
<path d="M12 20.5C12 19.6716 12.6716 19 13.5 19C14.3284 19 15 19.6716 15 20.5V26.5C15 27.3284 14.3284 28 13.5 28C12.6716 28 12 27.3284 12 26.5V20.5Z" fill="#01B0F9"/>
<path d="M16 20.3333V25.7639C16 26.5215 16.428 27.214 17.1056 27.5528L17.1554 27.5777C17.7108 27.8554 18.3233 28 18.9443 28H24.3604C25.3138 28 26.1346 27.3271 26.3216 26.3922L27.5216 20.3922C27.7691 19.1547 26.8225 18 25.5604 18H22V14C22 12.8954 21.1046 12 20 12C19.4477 12 19 12.4477 19 13V13.6667C19 14.5321 18.7193 15.3743 18.2 16.0667L16.8 17.9333C16.2807 18.6257 16 19.4679 16 20.3333Z" fill="#01B0F9"/>
</svg>
