<svg width="107" height="32" viewBox="0 0 107 32" fill="none" xmlns="http://www.w3.org/2000/svg">
<path fill-rule="evenodd" clip-rule="evenodd" d="M39.5986 15.355V15.314C39.5986 13.211 38.1756 11.83 36.4856 11.83C34.7946 11.83 33.3106 13.232 33.3106 15.314V15.355C33.3106 17.438 34.7946 18.839 36.4856 18.839C38.1966 18.839 39.5986 17.499 39.5986 15.355ZM30.8776 11.026C30.8776 10.325 31.4136 9.76902 32.1156 9.76902C32.8166 9.76902 33.3726 10.325 33.3726 11.026V11.707C34.1766 10.573 35.3106 9.66602 37.0826 9.66602C39.6396 9.66602 42.1336 11.686 42.1336 15.314V15.355C42.1336 18.963 39.6606 21.003 37.0826 21.003C35.2696 21.003 34.1356 20.097 33.3726 19.086V22.941C33.3726 23.642 32.8166 24.178 32.1156 24.178C31.4346 24.178 30.8776 23.642 30.8776 22.941V11.026Z" fill="white"/>
<path fill-rule="evenodd" clip-rule="evenodd" d="M52.1885 15.3965V15.3545C52.1885 13.4385 50.8075 11.8505 48.8495 11.8505C46.8495 11.8505 45.5715 13.4175 45.5715 15.3135V15.3545C45.5715 17.2515 46.9535 18.8385 48.8905 18.8385C50.9115 18.8385 52.1885 17.2725 52.1885 15.3965ZM43.0775 15.3965V15.3545C43.0775 12.2425 45.5505 9.66553 48.8905 9.66553C52.2305 9.66553 54.6835 12.2015 54.6835 15.3135V15.3545C54.6835 18.4475 52.2095 21.0245 48.8495 21.0245C45.5305 21.0245 43.0775 18.4885 43.0775 15.3965Z" fill="white"/>
<path fill-rule="evenodd" clip-rule="evenodd" d="M55.7725 19.684C55.5045 19.54 55.2985 19.231 55.2985 18.818C55.2985 18.262 55.7315 17.809 56.3085 17.809C56.5145 17.809 56.7005 17.87 56.8445 17.953C57.8955 18.653 58.9885 19.004 59.9775 19.004C61.0495 19.004 61.6685 18.55 61.6685 17.829V17.788C61.6685 16.942 60.5135 16.654 59.2365 16.262C57.6275 15.809 55.8345 15.149 55.8345 13.067V13.026C55.8345 10.964 57.5455 9.70703 59.7105 9.70703C60.8645 9.70703 62.0815 10.037 63.1315 10.593C63.4825 10.779 63.7295 11.108 63.7295 11.541C63.7295 12.119 63.2765 12.552 62.6995 12.552C62.4935 12.552 62.3695 12.51 62.2045 12.428C61.3185 11.975 60.4115 11.686 59.6485 11.686C58.6795 11.686 58.1235 12.139 58.1235 12.758V12.799C58.1235 13.603 59.2975 13.933 60.5765 14.345C62.1635 14.84 63.9575 15.561 63.9575 17.519V17.561C63.9575 19.849 62.1835 20.983 59.9165 20.983C58.5355 20.983 57.0305 20.55 55.7725 19.684Z" fill="white"/>
<path fill-rule="evenodd" clip-rule="evenodd" d="M64.8604 19.684C64.5924 19.54 64.3864 19.231 64.3864 18.818C64.3864 18.262 64.8194 17.809 65.3964 17.809C65.6024 17.809 65.7884 17.87 65.9324 17.953C66.9834 18.653 68.0764 19.004 69.0654 19.004C70.1374 19.004 70.7564 18.55 70.7564 17.829V17.788C70.7564 16.942 69.6014 16.654 68.3244 16.262C66.7154 15.809 64.9224 15.149 64.9224 13.067V13.026C64.9224 10.964 66.6334 9.70703 68.7984 9.70703C69.9524 9.70703 71.1694 10.037 72.2194 10.593C72.5704 10.779 72.8174 11.108 72.8174 11.541C72.8174 12.119 72.3644 12.552 71.7874 12.552C71.5814 12.552 71.4574 12.51 71.2924 12.428C70.4064 11.975 69.4994 11.686 68.7364 11.686C67.7674 11.686 67.2114 12.139 67.2114 12.758V12.799C67.2114 13.603 68.3854 13.933 69.6644 14.345C71.2514 14.84 73.0454 15.561 73.0454 17.519V17.561C73.0454 19.849 71.2714 20.983 69.0044 20.983C67.6234 20.983 66.1184 20.55 64.8604 19.684Z" fill="white"/>
<path fill-rule="evenodd" clip-rule="evenodd" d="M74.7109 11.0265C74.7109 10.3255 75.2469 9.76851 75.9479 9.76851C76.6479 9.76851 77.2049 10.3255 77.2049 11.0265V19.6435C77.2049 20.3435 76.6479 20.8805 75.9479 20.8805C75.2679 20.8805 74.7109 20.3435 74.7109 19.6435V11.0265ZM74.5249 6.96451C74.5249 6.22351 75.1439 5.74951 75.9479 5.74951C76.7519 5.74951 77.3699 6.22351 77.3699 6.96451V7.08851C77.3699 7.83151 76.7519 8.32551 75.9479 8.32551C75.1439 8.32551 74.5249 7.83151 74.5249 7.08851V6.96451Z" fill="white"/>
<path fill-rule="evenodd" clip-rule="evenodd" d="M88.1504 15.355V15.314C88.1504 13.211 86.7274 11.83 85.0374 11.83C83.3464 11.83 81.8624 13.232 81.8624 15.314V15.355C81.8624 17.438 83.3464 18.839 85.0374 18.839C86.7484 18.839 88.1504 17.499 88.1504 15.355ZM79.4294 6.862C79.4294 6.161 79.9654 5.625 80.6674 5.625C81.3684 5.625 81.9244 6.161 81.9244 6.862V11.707C82.7284 10.573 83.8624 9.666 85.6344 9.666C88.1914 9.666 90.6854 11.686 90.6854 15.314V15.355C90.6854 18.963 88.2124 21.003 85.6344 21.003C83.8214 21.003 82.6874 20.097 81.9244 19.086V19.643C81.9244 20.323 81.3684 20.88 80.6674 20.88C79.9864 20.88 79.4294 20.323 79.4294 19.643V6.862Z" fill="white"/>
<path fill-rule="evenodd" clip-rule="evenodd" d="M92.3721 6.86176C92.3721 6.18176 92.9081 5.62476 93.6091 5.62476C94.3091 5.62476 94.8661 6.18176 94.8661 6.86176V19.6428C94.8661 20.3438 94.3091 20.8798 93.6091 20.8798C92.9291 20.8798 92.3721 20.3438 92.3721 19.6428V6.86176Z" fill="white"/>
<mask id="mask0" mask-type="alpha" maskUnits="userSpaceOnUse" x="96" y="9" width="11" height="13">
<path fill-rule="evenodd" clip-rule="evenodd" d="M96.4927 9.66577H106.986V21.0248H96.4927V9.66577Z" fill="white"/>
</mask>
<g mask="url(#mask0)">
<path fill-rule="evenodd" clip-rule="evenodd" d="M104.554 14.5718C104.389 12.9638 103.441 11.7068 101.791 11.7068C100.266 11.7068 99.1937 12.8818 98.9667 14.5718H104.554ZM102.08 21.0248C98.9257 21.0248 96.4927 18.7358 96.4927 15.3758V15.3348C96.4927 12.2218 98.6997 9.66577 101.812 9.66577C105.276 9.66577 106.987 12.5098 106.987 15.0258C106.987 15.7258 106.45 16.2208 105.812 16.2208H98.9877C99.2557 17.9938 100.513 18.9838 102.121 18.9838C103.173 18.9838 103.997 18.6128 104.699 18.0348C104.884 17.8908 105.049 17.8088 105.337 17.8088C105.894 17.8088 106.326 18.2408 106.326 18.8188C106.326 19.1278 106.183 19.3958 105.997 19.5808C105.007 20.4678 103.771 21.0248 102.08 21.0248Z" fill="white"/>
</g>
<path fill-rule="evenodd" clip-rule="evenodd" d="M24.5 12.519C24.5 19.756 20.25 26.418 13.5 29.392C6.931 26.498 2.5 19.952 2.5 12.519V7.17L13.5 2.603L24.5 7.17V12.519ZM26.229 5.182L13.979 0.096C13.673 -0.032 13.327 -0.032 13.021 0.096L0.771 5.182C0.304 5.375 0 5.831 0 6.336V12.519C0 21.032 5.146 28.69 13.027 31.907C13.33 32.031 13.67 32.031 13.973 31.907C21.854 28.69 27 21.032 27 12.519V6.336C27 5.831 26.696 5.375 26.229 5.182Z" fill="#01B0F9"/>
<path fill-rule="evenodd" clip-rule="evenodd" d="M18.752 10.9628C18.752 11.1948 18.666 11.4438 18.606 11.5638L14.982 19.8928C14.69 20.5278 14.235 20.9838 13.557 20.9838H13.428C12.75 20.9838 12.303 20.5538 12.011 19.8928L10.805 17.1308C10.397 16.1958 10.758 15.1038 11.643 14.5958L12.123 14.3198L12.432 15.1098L13.514 17.8918L15.73 12.2338L15.918 11.7438L16.356 10.6368C16.545 10.2068 16.871 9.7688 17.532 9.7688C17.936 9.7688 18.297 9.9578 18.52 10.2498C18.58 10.3358 18.64 10.4308 18.675 10.5338C18.726 10.6618 18.752 10.8078 18.752 10.9628Z" fill="#01B0F9"/>
<path fill-rule="evenodd" clip-rule="evenodd" d="M11.6768 13.5713C10.6438 14.1683 9.32181 13.7333 8.84381 12.6403L8.37981 11.5803C8.32081 11.4003 8.23981 11.1903 8.23981 10.9603C8.23981 10.3403 8.78981 9.77026 9.48081 9.77026C10.1598 9.77026 10.5098 10.1603 10.7098 10.6803L11.7998 13.5003L11.6768 13.5713Z" fill="white"/>
</svg>
