<svg width="540" height="395" viewBox="0 0 540 395" fill="none" xmlns="http://www.w3.org/2000/svg">
<g filter="url(#filter0_dd)">
<rect x="380" y="80" width="80" height="80" rx="16" fill="url(#paint0_linear)"/>
</g>
<g filter="url(#filter1_dd)">
<rect x="315" y="235" width="80" height="80" rx="16" fill="url(#paint1_linear)"/>
</g>
<g filter="url(#filter2_dd)">
<rect x="220" y="105" width="120" height="120" rx="24" fill="url(#paint2_linear)"/>
</g>
<g filter="url(#filter3_dd)">
<rect x="80" y="180" width="120" height="120" rx="24" fill="url(#paint3_linear)"/>
</g>
<path d="M126.5 258C120.701 258 116 253.299 116 247.5C116 242.075 120.114 237.611 125.393 237.058C125.137 236.081 125 235.057 125 234C125 227.373 130.373 222 137 222C142.637 222 147.365 225.886 148.653 231.125C149.257 231.043 149.874 231 150.5 231C157.956 231 164 237.044 164 244.5C164 251.956 157.956 258 150.5 258H126.5Z" fill="white"/>
<path d="M411 126C407.134 126 404 122.866 404 119C404 115.383 406.743 112.407 410.262 112.038C410.091 111.388 410 110.704 410 110C410 105.582 413.582 102 418 102C421.758 102 424.91 104.591 425.769 108.083C426.171 108.028 426.582 108 427 108C431.971 108 436 112.029 436 117C436 121.971 431.971 126 427 126H422V118.828L424.586 121.414C425.367 122.195 426.633 122.195 427.414 121.414C428.195 120.633 428.195 119.367 427.414 118.586L421.414 112.586C420.633 111.805 419.367 111.805 418.586 112.586L412.586 118.586C411.805 119.367 411.805 120.633 412.586 121.414C413.367 122.195 414.633 122.195 415.414 121.414L418 118.828L418 126H411Z" fill="white"/>
<path d="M418 126H422L422 136C422 137.105 421.105 138 420 138C418.895 138 418 137.105 418 136L418 126Z" fill="white"/>
<path fill-rule="evenodd" clip-rule="evenodd" d="M280 189C293.255 189 304 178.255 304 165C304 151.745 293.255 141 280 141C266.745 141 256 151.745 256 165C256 178.255 266.745 189 280 189ZM283 153C283 151.343 281.657 150 280 150C278.343 150 277 151.343 277 153V165C277 165.796 277.316 166.559 277.879 167.121L286.364 175.607C287.536 176.778 289.435 176.778 290.607 175.607C291.778 174.435 291.778 172.536 290.607 171.364L283 163.757V153Z" fill="white"/>
<path fill-rule="evenodd" clip-rule="evenodd" d="M371 265V281C371 283.209 369.209 285 367 285H357L347 293V285H343C340.791 285 339 283.209 339 281V265C339 262.791 340.791 261 343 261H367C369.209 261 371 262.791 371 265ZM349 271H345V275H349V271ZM353 271H357V275H353V271ZM365 271H361V275H365V271Z" fill="white"/>
<defs>
<filter id="filter0_dd" x="300" y="0" width="240" height="240" filterUnits="userSpaceOnUse" color-interpolation-filters="sRGB">
<feFlood flood-opacity="0" result="BackgroundImageFix"/>
<feColorMatrix in="SourceAlpha" type="matrix" values="0 0 0 0 0 0 0 0 0 0 0 0 0 0 0 0 0 0 127 0" result="hardAlpha"/>
<feOffset dy="1"/>
<feGaussianBlur stdDeviation="1"/>
<feColorMatrix type="matrix" values="0 0 0 0 0 0 0 0 0 0 0 0 0 0 0 0 0 0 0.2 0"/>
<feBlend mode="normal" in2="BackgroundImageFix" result="effect1_dropShadow"/>
<feColorMatrix in="SourceAlpha" type="matrix" values="0 0 0 0 0 0 0 0 0 0 0 0 0 0 0 0 0 0 127 0" result="hardAlpha"/>
<feMorphology radius="20" operator="dilate" in="SourceAlpha" result="effect2_dropShadow"/>
<feOffset/>
<feGaussianBlur stdDeviation="30"/>
<feColorMatrix type="matrix" values="0 0 0 0 0.00392157 0 0 0 0 0.690196 0 0 0 0 0.976471 0 0 0 0.1 0"/>
<feBlend mode="normal" in2="effect1_dropShadow" result="effect2_dropShadow"/>
<feBlend mode="normal" in="SourceGraphic" in2="effect2_dropShadow" result="shape"/>
</filter>
<filter id="filter1_dd" x="235" y="155" width="240" height="240" filterUnits="userSpaceOnUse" color-interpolation-filters="sRGB">
<feFlood flood-opacity="0" result="BackgroundImageFix"/>
<feColorMatrix in="SourceAlpha" type="matrix" values="0 0 0 0 0 0 0 0 0 0 0 0 0 0 0 0 0 0 127 0" result="hardAlpha"/>
<feOffset dy="1"/>
<feGaussianBlur stdDeviation="1"/>
<feColorMatrix type="matrix" values="0 0 0 0 0 0 0 0 0 0 0 0 0 0 0 0 0 0 0.2 0"/>
<feBlend mode="normal" in2="BackgroundImageFix" result="effect1_dropShadow"/>
<feColorMatrix in="SourceAlpha" type="matrix" values="0 0 0 0 0 0 0 0 0 0 0 0 0 0 0 0 0 0 127 0" result="hardAlpha"/>
<feMorphology radius="20" operator="dilate" in="SourceAlpha" result="effect2_dropShadow"/>
<feOffset/>
<feGaussianBlur stdDeviation="30"/>
<feColorMatrix type="matrix" values="0 0 0 0 0.00392157 0 0 0 0 0.690196 0 0 0 0 0.976471 0 0 0 0.1 0"/>
<feBlend mode="normal" in2="effect1_dropShadow" result="effect2_dropShadow"/>
<feBlend mode="normal" in="SourceGraphic" in2="effect2_dropShadow" result="shape"/>
</filter>
<filter id="filter2_dd" x="140" y="25" width="280" height="280" filterUnits="userSpaceOnUse" color-interpolation-filters="sRGB">
<feFlood flood-opacity="0" result="BackgroundImageFix"/>
<feColorMatrix in="SourceAlpha" type="matrix" values="0 0 0 0 0 0 0 0 0 0 0 0 0 0 0 0 0 0 127 0" result="hardAlpha"/>
<feOffset dy="1"/>
<feGaussianBlur stdDeviation="1"/>
<feColorMatrix type="matrix" values="0 0 0 0 0 0 0 0 0 0 0 0 0 0 0 0 0 0 0.2 0"/>
<feBlend mode="normal" in2="BackgroundImageFix" result="effect1_dropShadow"/>
<feColorMatrix in="SourceAlpha" type="matrix" values="0 0 0 0 0 0 0 0 0 0 0 0 0 0 0 0 0 0 127 0" result="hardAlpha"/>
<feMorphology radius="20" operator="dilate" in="SourceAlpha" result="effect2_dropShadow"/>
<feOffset/>
<feGaussianBlur stdDeviation="30"/>
<feColorMatrix type="matrix" values="0 0 0 0 0.00392157 0 0 0 0 0.690196 0 0 0 0 0.976471 0 0 0 0.1 0"/>
<feBlend mode="normal" in2="effect1_dropShadow" result="effect2_dropShadow"/>
<feBlend mode="normal" in="SourceGraphic" in2="effect2_dropShadow" result="shape"/>
</filter>
<filter id="filter3_dd" x="0" y="100" width="280" height="280" filterUnits="userSpaceOnUse" color-interpolation-filters="sRGB">
<feFlood flood-opacity="0" result="BackgroundImageFix"/>
<feColorMatrix in="SourceAlpha" type="matrix" values="0 0 0 0 0 0 0 0 0 0 0 0 0 0 0 0 0 0 127 0" result="hardAlpha"/>
<feOffset dy="1"/>
<feGaussianBlur stdDeviation="1"/>
<feColorMatrix type="matrix" values="0 0 0 0 0 0 0 0 0 0 0 0 0 0 0 0 0 0 0.2 0"/>
<feBlend mode="normal" in2="BackgroundImageFix" result="effect1_dropShadow"/>
<feColorMatrix in="SourceAlpha" type="matrix" values="0 0 0 0 0 0 0 0 0 0 0 0 0 0 0 0 0 0 127 0" result="hardAlpha"/>
<feMorphology radius="20" operator="dilate" in="SourceAlpha" result="effect2_dropShadow"/>
<feOffset/>
<feGaussianBlur stdDeviation="30"/>
<feColorMatrix type="matrix" values="0 0 0 0 0.00392157 0 0 0 0 0.690196 0 0 0 0 0.976471 0 0 0 0.1 0"/>
<feBlend mode="normal" in2="effect1_dropShadow" result="effect2_dropShadow"/>
<feBlend mode="normal" in="SourceGraphic" in2="effect2_dropShadow" result="shape"/>
</filter>
<linearGradient id="paint0_linear" x1="420" y1="80" x2="420" y2="160" gradientUnits="userSpaceOnUse">
<stop stop-color="#01B0F9"/>
<stop offset="1" stop-color="#1957C8"/>
</linearGradient>
<linearGradient id="paint1_linear" x1="355" y1="235" x2="355" y2="315" gradientUnits="userSpaceOnUse">
<stop stop-color="#01B0F9"/>
<stop offset="1" stop-color="#1957C8"/>
</linearGradient>
<linearGradient id="paint2_linear" x1="280" y1="105" x2="280" y2="225" gradientUnits="userSpaceOnUse">
<stop stop-color="#01B0F9"/>
<stop offset="1" stop-color="#1957C8"/>
</linearGradient>
<linearGradient id="paint3_linear" x1="140" y1="180" x2="140" y2="300" gradientUnits="userSpaceOnUse">
<stop stop-color="#01B0F9"/>
<stop offset="1" stop-color="#1957C8"/>
</linearGradient>
</defs>
</svg>
