<svg width="365" height="242" viewBox="0 0 365 242" fill="none" xmlns="http://www.w3.org/2000/svg">
<path opacity="0.2" fill-rule="evenodd" clip-rule="evenodd" d="M111 196C102.163 196 95 203.163 95 212V242H175V212C175 203.163 167.837 196 159 196H111Z" fill="white" fill-opacity="0.15"/>
<rect opacity="0.2" x="95" y="101" width="80" height="80" rx="16" fill="white" fill-opacity="0.5"/>
<rect opacity="0.2" x="95" y="6" width="80" height="80" rx="16" fill="white" fill-opacity="0.15"/>
<path d="M126 153C122.134 153 119 149.866 119 146C119 142.383 121.743 139.407 125.262 139.038C125.091 138.388 125 137.704 125 137C125 132.582 128.582 129 133 129C136.758 129 139.91 131.591 140.769 135.083C141.171 135.028 141.582 135 142 135C146.971 135 151 139.029 151 144C151 148.971 146.971 153 142 153H126Z" fill="white" fill-opacity="0.6"/>
<rect opacity="0.2" y="47" width="80" height="80" rx="16" fill="white" fill-opacity="0.5"/>
<path opacity="0.2" fill-rule="evenodd" clip-rule="evenodd" d="M0 0V16C0 24.8366 7.16344 32 16 32H64C72.8366 32 80 24.8366 80 16V0H0Z" fill="white" fill-opacity="0.15"/>
<path opacity="0.2" fill-rule="evenodd" clip-rule="evenodd" d="M301 186C292.163 186 285 193.163 285 202V242H365V202C365 193.163 357.837 186 349 186H301Z" fill="white" fill-opacity="0.15"/>
<rect opacity="0.2" y="142" width="80" height="80" rx="16" fill="white" fill-opacity="0.15"/>
<path fill-rule="evenodd" clip-rule="evenodd" d="M24.3322 76.9976C30.3487 76.9159 35.8306 74.6204 40 70.8887C44.1694 74.6204 49.6513 76.9159 55.6678 76.9976C55.8863 78.2991 56 79.6362 56 80.9998C56 91.4495 49.3215 100.339 40 103.634C30.6785 100.339 24 91.4495 24 80.9998C24 79.6362 24.1137 78.2991 24.3322 76.9976ZM47.4142 84.414C48.1953 83.6329 48.1953 82.3666 47.4142 81.5855C46.6332 80.8045 45.3668 80.8045 44.5858 81.5855L38 88.1713L35.4142 85.5855C34.6332 84.8045 33.3668 84.8045 32.5858 85.5855C31.8047 86.3666 31.8047 87.6329 32.5858 88.414L36.5858 92.414C37.3668 93.195 38.6332 93.195 39.4142 92.414L47.4142 84.414Z" fill="white" fill-opacity="0.6"/>
<rect opacity="0.2" x="190" y="31" width="80" height="80" rx="16" fill="white" fill-opacity="0.5"/>
<path opacity="0.2" fill-rule="evenodd" clip-rule="evenodd" d="M190 0C190 8.83656 197.163 16 206 16H254C262.837 16 270 8.83656 270 0H190Z" fill="white" fill-opacity="0.15"/>
<path opacity="0.2" fill-rule="evenodd" clip-rule="evenodd" d="M270 242L270 237C270 228.163 262.837 221 254 221L206 221C197.163 221 190 228.163 190 237L190 242L270 242Z" fill="white" fill-opacity="0.15"/>
<path opacity="0.2" fill-rule="evenodd" clip-rule="evenodd" d="M75.619 242C72.7029 238.921 68.5757 237 64 237L16 237C11.4242 237 7.29712 238.921 4.38094 242L75.619 242Z" fill="white" fill-opacity="0.15"/>
<rect opacity="0.2" x="190" y="126" width="80" height="80" rx="16" fill="white" fill-opacity="0.15"/>
<path d="M228 63C228 66.3137 225.314 69 222 69C218.686 69 216 66.3137 216 63C216 59.6863 218.686 57 222 57C225.314 57 228 59.6863 228 63Z" fill="white" fill-opacity="0.6"/>
<path d="M244 63C244 66.3137 241.314 69 238 69C234.686 69 232 66.3137 232 63C232 59.6863 234.686 57 238 57C241.314 57 244 59.6863 244 63Z" fill="white" fill-opacity="0.6"/>
<path d="M235.858 85C235.952 84.3468 236 83.679 236 83C236 79.7296 234.879 76.7212 233 74.3381C234.47 73.4871 236.178 73 238 73C243.523 73 248 77.4772 248 83V85H235.858Z" fill="white" fill-opacity="0.6"/>
<path d="M222 73C227.523 73 232 77.4772 232 83V85H212V83C212 77.4772 216.477 73 222 73Z" fill="white" fill-opacity="0.6"/>
<rect opacity="0.2" x="285" y="91" width="80" height="80" rx="16" fill="white" fill-opacity="0.5"/>
<path fill-rule="evenodd" clip-rule="evenodd" d="M341 131C341 139.837 333.837 147 325 147C316.163 147 309 139.837 309 131C309 122.163 316.163 115 325 115C333.837 115 341 122.163 341 131ZM337 131C337 132.985 336.518 134.858 335.664 136.507L332.615 133.458C332.865 132.684 333 131.858 333 131C333 130.343 332.921 129.704 332.771 129.093L335.897 125.967C336.605 127.498 337 129.203 337 131ZM326.669 138.826L329.831 141.988C328.353 142.639 326.719 143 325 143C323.203 143 321.498 142.605 319.967 141.897L323.093 138.771C323.704 138.921 324.343 139 325 139C325.572 139 326.131 138.94 326.669 138.826ZM317.316 133.234C317.11 132.525 317 131.775 317 131C317 130.336 317.081 129.691 317.233 129.074L317.076 129.232L314.012 126.169C313.361 127.647 313 129.281 313 131C313 132.908 313.445 134.711 314.237 136.313L317.316 133.234ZM319.493 120.336C321.142 119.482 323.015 119 325 119C326.908 119 328.711 119.445 330.313 120.237L327.234 123.316C326.525 123.11 325.775 123 325 123C324.142 123 323.316 123.135 322.542 123.385L319.493 120.336ZM329 131C329 133.209 327.209 135 325 135C322.791 135 321 133.209 321 131C321 128.791 322.791 127 325 127C327.209 127 329 128.791 329 131Z" fill="white" fill-opacity="0.6"/>
<path opacity="0.2" fill-rule="evenodd" clip-rule="evenodd" d="M290.417 0C287.095 2.93178 285 7.22123 285 12V60C285 68.8366 292.163 76 301 76H349C357.837 76 365 68.8366 365 60V12C365 7.22123 362.905 2.93178 359.583 0H290.417Z" fill="white" fill-opacity="0.15"/>
</svg>
