<svg width="40" height="40" viewBox="0 0 40 40" fill="none" xmlns="http://www.w3.org/2000/svg">
<rect x="0.5" y="0.5" width="39" height="39" rx="7.5" fill="#1F2937" stroke="#374151"/>
<path fill-rule="evenodd" clip-rule="evenodd" d="M20 28C24.4183 28 28 24.4183 28 20C28 15.5817 24.4183 12 20 12C15.5817 12 12 15.5817 12 20C12 24.4183 15.5817 28 20 28ZM21 16C21 15.4477 20.5523 15 20 15C19.4477 15 19 15.4477 19 16V20C19 20.2652 19.1054 20.5196 19.2929 20.7071L22.1213 23.5355C22.5118 23.9261 23.145 23.9261 23.5355 23.5355C23.9261 23.145 23.9261 22.5118 23.5355 22.1213L21 19.5858V16Z" fill="#01B0F9"/>
</svg>
