<svg width="40" height="40" viewBox="0 0 40 40" fill="none" xmlns="http://www.w3.org/2000/svg">
<rect x="0.5" y="0.5" width="39" height="39" rx="7.5" fill="#1F2937" stroke="#374151"/>
<path fill-rule="evenodd" clip-rule="evenodd" d="M12 19.5C12 21.433 13.567 23 15.5 23H19V25.5858L17.7071 24.2929C17.3166 23.9024 16.6834 23.9024 16.2929 24.2929C15.9024 24.6834 15.9024 25.3166 16.2929 25.7071L19.2929 28.7071C19.6834 29.0976 20.3166 29.0976 20.7071 28.7071L23.7071 25.7071C24.0976 25.3166 24.0976 24.6834 23.7071 24.2929C23.3166 23.9024 22.6834 23.9024 22.2929 24.2929L21 25.5858V23H23.5C25.9853 23 28 20.9853 28 18.5C28 16.0147 25.9853 14 23.5 14C23.2912 14 23.0857 14.0142 22.8845 14.0417C22.4551 12.2954 20.8788 11 19 11C16.7909 11 15 12.7909 15 15C15 15.3522 15.0455 15.6938 15.131 16.0192C13.3715 16.2036 12 17.6916 12 19.5ZM21 23H19V18C19 17.4477 19.4477 17 20 17C20.5523 17 21 17.4477 21 18V23Z" fill="#01B0F9"/>
</svg>
