<svg width="40" height="40" viewBox="0 0 40 40" fill="none" xmlns="http://www.w3.org/2000/svg">
<rect x="0.5" y="0.5" width="39" height="39" rx="7.5" fill="#1F2937" stroke="#374151"/>
<path fill-rule="evenodd" clip-rule="evenodd" d="M12.1661 14.9988C15.1744 14.958 17.9153 13.8102 20 11.9443C22.0847 13.8102 24.8256 14.958 27.8339 14.9988C27.9431 15.6496 28 16.3181 28 16.9999C28 22.2248 24.6608 26.6697 20 28.317C15.3392 26.6697 12 22.2248 12 16.9999C12 16.3181 12.0569 15.6496 12.1661 14.9988ZM23.7071 18.707C24.0976 18.3165 24.0976 17.6833 23.7071 17.2928C23.3166 16.9022 22.6834 16.9022 22.2929 17.2928L19 20.5857L17.7071 19.2928C17.3166 18.9022 16.6834 18.9022 16.2929 19.2928C15.9024 19.6833 15.9024 20.3165 16.2929 20.707L18.2929 22.707C18.6834 23.0975 19.3166 23.0975 19.7071 22.707L23.7071 18.707Z" fill="#01B0F9"/>
</svg>
