<svg width="40" height="40" viewBox="0 0 40 40" fill="none" xmlns="http://www.w3.org/2000/svg">
<rect x="0.5" y="0.5" width="39" height="39" rx="7.5" fill="#1F2937" stroke="#374151"/>
<path d="M15.5 23C13.567 23 12 21.433 12 19.5C12 17.6916 13.3715 16.2036 15.131 16.0192C15.0455 15.6938 15 15.3522 15 15C15 12.7909 16.7909 11 19 11C20.8788 11 22.4551 12.2954 22.8845 14.0417C23.0857 14.0142 23.2912 14 23.5 14C25.9853 14 28 16.0147 28 18.5C28 20.9853 25.9853 23 23.5 23H21V19.4142L22.2929 20.7071C22.6834 21.0976 23.3166 21.0976 23.7071 20.7071C24.0976 20.3166 24.0976 19.6834 23.7071 19.2929L20.7071 16.2929C20.3166 15.9024 19.6834 15.9024 19.2929 16.2929L16.2929 19.2929C15.9024 19.6834 15.9024 20.3166 16.2929 20.7071C16.6834 21.0976 17.3166 21.0976 17.7071 20.7071L19 19.4142L19 23H15.5Z" fill="#01B0F9"/>
<path d="M19 23H21L21 28C21 28.5523 20.5523 29 20 29C19.4477 29 19 28.5523 19 28L19 23Z" fill="#01B0F9"/>
</svg>
